<?xml version="1.0" encoding="UTF-8" standalone="no"?>
<!-- Created with Inkscape (http://www.inkscape.org/) -->

<svg
   xmlns:dc="http://purl.org/dc/elements/1.1/"
   xmlns:cc="http://creativecommons.org/ns#"
   xmlns:rdf="http://www.w3.org/1999/02/22-rdf-syntax-ns#"
   xmlns:svg="http://www.w3.org/2000/svg"
   xmlns="http://www.w3.org/2000/svg"
   xmlns:sodipodi="http://sodipodi.sourceforge.net/DTD/sodipodi-0.dtd"
   xmlns:inkscape="http://www.inkscape.org/namespaces/inkscape"
   width="598.42322"
   height="449.82983"
   id="svg5722"
   version="1.1"
   inkscape:version="0.48.4 r9939"
   sodipodi:docname="logo_alone.svg"
   inkscape:export-filename="/home/alexandre/Dropbox/Documents/enterprise/neurita/image/logo.png"
   inkscape:export-xdpi="90"
   inkscape:export-ydpi="90">
  <defs
     id="defs5724">
    <linearGradient
       id="linearGradient5203">
      <stop
         style="stop-color:#ffffff;stop-opacity:1;"
         offset="0"
         id="stop5205" />
      <stop
         style="stop-color:#ffffff;stop-opacity:0;"
         offset="1"
         id="stop5207" />
    </linearGradient>
    <clipPath
       id="clipPath3908"
       clipPathUnits="userSpaceOnUse">
      <path
         id="path3910"
         d="m 0,1080 1920,0 L 1920,0 0,0 0,1080 z"
         inkscape:connector-curvature="0" />
    </clipPath>
    <clipPath
       id="clipPath3908-2"
       clipPathUnits="userSpaceOnUse">
      <path
         id="path3910-2"
         d="m 0,1080 1920,0 L 1920,0 0,0 0,1080 z"
         inkscape:connector-curvature="0" />
    </clipPath>
    <clipPath
       clipPathUnits="userSpaceOnUse"
       id="clipPath3191">
      <path
         inkscape:connector-curvature="0"
         d="m 248.052,362.834 637.795,0 0,354.332 -637.795,0 0,-354.332 z"
         id="path3193" />
    </clipPath>
    <clipPath
       clipPathUnits="userSpaceOnUse"
       id="clipPath3199">
      <path
         inkscape:connector-curvature="0"
         d="m 80.8311,1105.83 799.0549,0 0,-671.953 -799.0549,0 0,671.953 z"
         id="path3201" />
    </clipPath>
    <clipPath
       clipPathUnits="userSpaceOnUse"
       id="clipPath3547">
      <path
         inkscape:connector-curvature="0"
         d="m 209.344,959.677 799.056,0 0,-671.948 -799.056,0 0,671.948 z"
         id="path3549" />
    </clipPath>
    <clipPath
       id="clipPath3400"
       clipPathUnits="userSpaceOnUse">
      <path
         id="path3402"
         d="m 0,1080 1920,0 L 1920,0 0,0 0,1080 z"
         inkscape:connector-curvature="0" />
    </clipPath>
  </defs>
  <sodipodi:namedview
     inkscape:document-units="mm"
     pagecolor="#ffffff"
     bordercolor="#666666"
     borderopacity="1.0"
     inkscape:pageopacity="0.0"
     inkscape:pageshadow="2"
     inkscape:zoom="0.43415836"
     inkscape:cx="-18.25017"
     inkscape:cy="503.62772"
     inkscape:current-layer="layer1"
     id="namedview5726"
     showgrid="false"
     units="mm"
     fit-margin-top="10"
     fit-margin-right="10"
     fit-margin-bottom="10"
     fit-margin-left="10"
     inkscape:window-width="1280"
     inkscape:window-height="1000"
     inkscape:window-x="1920"
     inkscape:window-y="24"
     inkscape:window-maximized="1" />
  <metadata
     id="metadata5728">
    <rdf:RDF>
      <cc:Work
         rdf:about="">
        <dc:format>image/svg+xml</dc:format>
        <dc:type
           rdf:resource="http://purl.org/dc/dcmitype/StillImage" />
        <dc:title></dc:title>
      </cc:Work>
    </rdf:RDF>
  </metadata>
  <g
     inkscape:label="Layer 1"
     inkscape:groupmode="layer"
     id="layer1"
     transform="translate(-708.94425,-992.36545)">
    <g
       id="g3691"
       transform="matrix(1.3390954,0,0,1.3390954,503.25029,-884.6794)">
      <g
         transform="matrix(2.1018778,0,0,-2.1018778,259.91953,1495.9943)"
         id="g3856">
        <path
           id="path3858"
           style="fill:#4eafb0;fill-opacity:1;fill-rule:nonzero;stroke:none"
           d="M 0,0 -18.604,-26.979 27.893,-42.288 0,0 z"
           inkscape:connector-curvature="0" />
      </g>
      <g
         transform="matrix(2.1018778,0,0,-2.1018778,346.43534,1534.9366)"
         id="g3860">
        <path
           id="path3862"
           style="fill:#62b6b5;fill-opacity:1;fill-rule:nonzero;stroke:none"
           d="M 0,0 -13.269,-23.761 13.096,-17.364 0,0 z"
           inkscape:connector-curvature="0" />
      </g>
      <g
         transform="matrix(2.1018778,0,0,-2.1018778,318.54636,1584.8787)"
         id="g3864">
        <path
           id="path3866"
           style="fill:#62b6b5;fill-opacity:1;fill-rule:nonzero;stroke:none"
           d="M 0,0 13.269,23.761 -27.893,42.288 0,0 z"
           inkscape:connector-curvature="0" />
      </g>
      <g
         transform="matrix(2.1018778,0,0,-2.1018778,411.80479,1496.2715)"
         id="g3868">
        <path
           id="path3870"
           style="fill:#43969c;fill-opacity:1;fill-rule:nonzero;stroke:none"
           d="M 0,0 -18.005,-35.76 23.59,-48.856 0,0 z"
           inkscape:connector-curvature="0" />
      </g>
      <g
         transform="matrix(2.1018778,0,0,-2.1018778,507.81603,1477.6459)"
         id="g3872">
        <path
           id="path3874"
           style="fill:#73bdb9;fill-opacity:1;fill-rule:nonzero;stroke:none"
           d="M 0,0 -22.089,-57.718 8.987,-44.767 0,0 z"
           inkscape:connector-curvature="0" />
      </g>
      <g
         transform="matrix(2.1018778,0,0,-2.1018778,461.38787,1598.9617)"
         id="g3876">
        <path
           id="path3878"
           style="fill:#4eafb0;fill-opacity:1;fill-rule:nonzero;stroke:none"
           d="M 0,0 22.089,57.718 -23.59,48.856 0,0 z"
           inkscape:connector-curvature="0" />
      </g>
      <g
         transform="matrix(2.1018778,0,0,-2.1018778,373.9609,1571.434)"
         id="g3880">
        <path
           id="path3882"
           style="fill:#4eafb0;fill-opacity:1;fill-rule:nonzero;stroke:none"
           d="M 0,0 18.005,35.76 -13.096,17.364 0,0 z"
           inkscape:connector-curvature="0" />
      </g>
      <g
         transform="matrix(2.1018778,0,0,-2.1018778,318.54636,1584.8787)"
         id="g3884">
        <path
           id="path3886"
           style="fill:#43969c;fill-opacity:1;fill-rule:nonzero;stroke:none"
           d="M 0,0 -36.065,-4.876 7.799,-29.727 0,0 z"
           inkscape:connector-curvature="0" />
      </g>
      <g
         transform="matrix(2.1018778,0,0,-2.1018778,334.93848,1647.3603)"
         id="g3888">
        <path
           id="path3890"
           style="fill:#4eafb0;fill-opacity:1;fill-rule:nonzero;stroke:none"
           d="M 0,0 18.565,36.123 -7.799,29.727 0,0 z"
           inkscape:connector-curvature="0" />
      </g>
      <g
         transform="matrix(2.1018778,0,0,-2.1018778,376.63133,1642.8814)"
         id="g3892">
        <path
           id="path3894"
           style="fill:#43969c;fill-opacity:1;fill-rule:nonzero;stroke:none"
           d="M 0,0 40.324,20.896 -1.271,33.992 0,0 z"
           inkscape:connector-curvature="0" />
      </g>
      <g
         transform="matrix(2.1018778,0,0,-2.1018778,373.9609,1571.434)"
         id="g3896">
        <path
           id="path3898"
           style="fill:#4eafb0;fill-opacity:1;fill-rule:nonzero;stroke:none"
           d="M 0,0 -18.565,-36.123 1.271,-33.992 0,0 z"
           inkscape:connector-curvature="0" />
      </g>
      <g
         transform="matrix(2.1018778,0,0,-2.1018778,242.7413,1595.1274)"
         id="g3900">
        <path
           id="path3902"
           style="fill:#3e8b93;fill-opacity:1;fill-rule:nonzero;stroke:none"
           d="M 0,0 36.065,4.876 -10.432,20.185 0,0 z"
           inkscape:connector-curvature="0" />
      </g>
      <g
         transform="matrix(2.1018778,0,0,-2.1018778,-455.26792,2945.7849)"
         id="g3904">
        <g
           clip-path="url(#clipPath3908)"
           id="g3906">
          <g
             transform="translate(458.2017,698.4893)"
             id="g3912">
            <path
               id="path3914"
               style="fill:#93cdc3;fill-opacity:1;fill-rule:nonzero;stroke:none"
               d="m 0,0 20.663,-7.034 c 1.66,-1.754 3.16,-3.657 4.48,-5.69 L 8.987,-44.767 0,0 z"
               inkscape:connector-curvature="0" />
          </g>
          <g
             transform="translate(488.0581,652.917)"
             id="g3916">
            <path
               id="path3918"
               style="fill:#93cdc3;fill-opacity:1;fill-rule:nonzero;stroke:none"
               d="M 0,0 -20.869,0.806 -5.007,33.293 C -0.804,27.008 1.647,19.455 1.647,11.326 1.647,7.39 1.07,3.588 0,0"
               inkscape:connector-curvature="0" />
          </g>
          <g
             transform="translate(468.3462,629.1016)"
             id="g3920">
            <path
               id="path3922"
               style="fill:#93cdc3;fill-opacity:1;fill-rule:nonzero;stroke:none"
               d="M 0,0 -1.157,24.621 19.712,23.815 C 16.624,13.467 9.421,4.894 0,0"
               inkscape:connector-curvature="0" />
          </g>
          <g
             transform="translate(468.3462,629.1016)"
             id="g3924">
            <path
               id="path3926"
               style="fill:#83c5be;fill-opacity:1;fill-rule:nonzero;stroke:none"
               d="M 0,0 C -4.8,-2.495 -10.177,-4.032 -15.876,-4.365 L -1.157,24.621 0,0 z"
               inkscape:connector-curvature="0" />
          </g>
          <g
             transform="translate(467.189,653.7227)"
             id="g3928">
            <path
               id="path3930"
               style="fill:#62b6b5;fill-opacity:1;fill-rule:nonzero;stroke:none"
               d="m 0,0 -14.367,-28.964 c -0.892,-0.06 -1.789,-0.094 -2.696,-0.094 -0.758,0 -1.512,0.024 -2.26,0.066 -0.509,-0.835 -1.054,-1.646 -1.63,-2.431 L -31.076,-12.951 0,0 z"
               inkscape:connector-curvature="0" />
          </g>
          <g
             transform="translate(436.1128,640.7715)"
             id="g3932">
            <path
               id="path3934"
               style="fill:#48a1a5;fill-opacity:1;fill-rule:nonzero;stroke:none"
               d="m 0,0 10.123,-18.472 c -1.279,-1.742 -2.718,-3.357 -4.298,-4.824 l -46.149,2.4 L 0,0 z"
               inkscape:connector-curvature="0" />
          </g>
          <g
             transform="translate(442.2065,617.7295)"
             id="g3936">
            <path
               id="path3938"
               style="fill:#43969c;fill-opacity:1;fill-rule:nonzero;stroke:none"
               d="m 0,0 c -6.081,-5.77 -14.297,-9.313 -23.341,-9.313 -3.585,0 -7.04,0.558 -10.283,1.588 -0.58,-0.718 -1.192,-1.412 -1.828,-2.082 L -46.418,2.146 0,0 z"
               inkscape:connector-curvature="0" />
          </g>
          <g
             transform="translate(406.9038,608.0801)"
             id="g3940">
            <path
               id="path3942"
               style="fill:#43969c;fill-opacity:1;fill-rule:nonzero;stroke:none"
               d="M 0,0 C -1.887,-2.015 -4.012,-3.807 -6.328,-5.331 L -11.115,11.796 0,0 z"
               inkscape:connector-curvature="0" />
          </g>
          <g
             transform="translate(395.7886,619.876)"
             id="g3944">
            <path
               id="path3946"
               style="fill:#43969c;fill-opacity:1;fill-rule:nonzero;stroke:none"
               d="m 0,0 4.842,-17.092 c -2.798,-1.85 -5.875,-3.309 -9.155,-4.303 L -19.836,-2.131 0,0 z"
               inkscape:connector-curvature="0" />
          </g>
          <g
             transform="translate(355.7251,587.3789)"
             id="g3948">
            <path
               id="path3950"
               style="fill:#3e8b93;fill-opacity:1;fill-rule:nonzero;stroke:none"
               d="M 0,0 C -6.231,0.198 -12.056,2.021 -17.058,5.06 L -23.637,55.217 0,0 z"
               inkscape:connector-curvature="0" />
          </g>
          <g
             transform="translate(332.0884,642.5957)"
             id="g3952">
            <path
               id="path3954"
               style="fill:#39818b;fill-opacity:1;fill-rule:nonzero;stroke:none"
               d="m 0,0 -23.802,-10.48 c -0.974,1.285 -1.847,2.653 -2.605,4.09 L -10.432,20.185 0,0 z"
               inkscape:connector-curvature="0" />
          </g>
          <g
             transform="translate(338.8237,592.3428)"
             id="g3956">
            <path
               id="path3958"
               style="fill:#43969c;fill-opacity:1;fill-rule:nonzero;stroke:none"
               d="m 0,0 c -10.135,6.088 -16.945,17.149 -17.052,29.812 -5.408,1.967 -10.08,5.467 -13.495,9.972 L -6.735,50.253 0,0 z"
               inkscape:connector-curvature="0" />
          </g>
          <g
             transform="translate(303.9946,659.9873)"
             id="g3960">
            <path
               id="path3962"
               style="fill:#39818b;fill-opacity:1;fill-rule:nonzero;stroke:none"
               d="M 0,0 C 1.716,4.796 4.688,8.965 8.442,12.258 L 17.662,2.793 0,0 z"
               inkscape:connector-curvature="0" />
          </g>
          <g
             transform="translate(305.6812,636.2061)"
             id="g3964">
            <path
               id="path3966"
               style="fill:#3e8b93;fill-opacity:1;fill-rule:nonzero;stroke:none"
               d="m 0,0 c -2.135,4.095 -3.411,8.867 -3.411,13.804 0,3.506 0.612,6.867 1.729,9.989 L 15.976,26.574 0,0 z"
               inkscape:connector-curvature="0" />
          </g>
          <g
             transform="translate(321.6567,662.7803)"
             id="g3968">
            <path
               id="path3970"
               style="fill:#3e8b93;fill-opacity:1;fill-rule:nonzero;stroke:none"
               d="m 0,0 -9.22,9.419 c 2.311,2.016 4.934,3.461 7.793,4.687 0.143,4.407 1.127,8.953 2.794,12.206 L 18.604,26.979 0,0 z"
               inkscape:connector-curvature="0" />
          </g>
          <g
             transform="translate(323.0239,689.0918)"
             id="g3972">
            <path
               id="path3974"
               style="fill:#4eafb0;fill-opacity:1;fill-rule:nonzero;stroke:none"
               d="M 0,0 C 2.413,5.784 5.952,10.297 10.759,13.826 L 17.237,0.668 0,0 z"
               inkscape:connector-curvature="0" />
          </g>
          <g
             transform="translate(350.4058,709.8564)"
             id="g3976">
            <path
               id="path3978"
               style="fill:#4eafb0;fill-opacity:1;fill-rule:nonzero;stroke:none"
               d="m 0,0 -10.145,-20.097 -6.478,13.159 C -11.828,-3.255 -6.328,-0.692 0,0"
               inkscape:connector-curvature="0" />
          </g>
          <g
             transform="translate(340.2612,689.7598)"
             id="g3980">
            <path
               id="path3982"
               style="fill:#4eafb0;fill-opacity:1;fill-rule:nonzero;stroke:none"
               d="m 0,0 9.892,20.068 c 0.202,0.023 0.404,0.046 0.606,0.067 2.836,3.378 6.316,6.191 10.253,8.258 L 41.161,-18.527 0,0 z"
               inkscape:connector-curvature="0" />
          </g>
          <g
             transform="translate(361.02,718.1563)"
             id="g3984">
            <path
               id="path3986"
               style="fill:#4eafb0;fill-opacity:1;fill-rule:nonzero;stroke:none"
               d="m 0,0 c 4.701,2.466 10.052,3.864 15.729,3.864 5.625,0 10.928,-1.371 15.598,-3.793 0.244,0.126 0.492,0.249 0.74,0.369 L 20.402,-46.924 0,0 z"
               inkscape:connector-curvature="0" />
          </g>
          <g
             transform="translate(381.4224,671.2324)"
             id="g3988">
            <path
               id="path3990"
               style="fill:#62b6b5;fill-opacity:1;fill-rule:nonzero;stroke:none"
               d="m 0,0 11.554,47.31 c 2.103,1.036 4.328,1.861 6.649,2.447 L 31.101,18.396 0,0 z"
               inkscape:connector-curvature="0" />
          </g>
          <g
             transform="translate(426.6353,716.4092)"
             id="g3992">
            <path
               id="path3994"
               style="fill:#a2d8c9;fill-opacity:1;fill-rule:nonzero;stroke:none"
               d="M 0,0 -14.112,-26.781 -27.376,4.483 c 2.773,0.735 5.684,1.128 8.686,1.128 C -11.782,5.611 -5.359,3.544 0,0"
               inkscape:connector-curvature="0" />
          </g>
          <g
             transform="translate(412.5229,689.6279)"
             id="g3996">
            <path
               id="path3998"
               style="fill:#73bdb9;fill-opacity:1;fill-rule:nonzero;stroke:none"
               d="m 0,0 14.076,26.807 c 0.323,-0.214 0.643,-0.432 0.957,-0.656 6.03,-0.005 11.74,-1.362 16.852,-3.78 L 45.679,8.861 0,0 z"
               inkscape:connector-curvature="0" />
          </g>
          <g
             transform="translate(443.8608,712.251)"
             id="g4000">
            <path
               id="path4002"
               style="fill:#73bdb9;fill-opacity:1;fill-rule:nonzero;stroke:none"
               d="m 0,0 c 4.721,-2.145 8.945,-5.187 12.456,-8.912 0.897,-0.141 1.783,-0.313 2.658,-0.512 L 14.341,-13.762 0,0 z"
               inkscape:connector-curvature="0" />
          </g>
          <g
             transform="translate(458.9058,702.8428)"
             id="g4004">
            <path
               id="path4006"
               style="fill:#73bdb9;fill-opacity:1;fill-rule:nonzero;stroke:none"
               d="M 0,0 C 7.806,-1.769 14.737,-5.842 20.037,-11.469 L -0.704,-4.354 0,0 z"
               inkscape:connector-curvature="0" />
          </g>
          <g
             transform="translate(356.0444,587.3789)"
             id="g4008">
            <path
               id="path4010"
               style="fill:#39818b;fill-opacity:1;fill-rule:nonzero;stroke:none"
               d="M 0,0 1.766,0 C 2.43,0.019 3.091,0.049 3.746,0.103 3.727,0.068 3.71,0.034 3.692,0 L 4.382,0 19.908,30.366 -23.956,55.217 -0.946,0.023 C -0.634,0.008 -0.315,0.007 0,0"
               inkscape:connector-curvature="0" />
          </g>
          <g
             transform="translate(386.0142,597.2949)"
             id="g4012">
            <path
               id="path4014"
               style="fill:#43969c;fill-opacity:1;fill-rule:nonzero;stroke:none"
               d="M 0,0 -10.062,20.45 5.461,1.187 0,0 z"
               inkscape:connector-curvature="0" />
          </g>
          <g
             transform="translate(375.9526,617.7451)"
             id="g4016">
            <path
               id="path4018"
               style="fill:#3e8b93;fill-opacity:1;fill-rule:nonzero;stroke:none"
               d="m 0,0 0,0 -15.807,-30.342 c 10.088,0.329 19.145,4.276 25.606,10.439 L 0,0 z"
               inkscape:connector-curvature="0" />
          </g>
        </g>
      </g>
    </g>
  </g>
</svg>
